<svg width="20" height="20" viewBox="0 0 20 20" fill="none" xmlns="http://www.w3.org/2000/svg">
<path d="M14 0V1.20312C13.2576 1.3842 12.5997 1.69515 12.125 2.18555L11.1699 1.63477L10.1699 3.36523L11.1777 3.94727C11.0902 4.29512 11 4.64453 11 5C11 5.35547 11.0902 5.70488 11.1777 6.05273L10.1699 6.63477L11.1699 8.36523L12.125 7.81445C12.5997 8.30485 13.2576 8.6158 14 8.79688V10H16V8.79688C16.7424 8.6158 17.4003 8.30485 17.875 7.81445L18.8301 8.36523L19.8301 6.63477L18.8223 6.05273C18.9098 5.70488 19 5.35547 19 5C19 4.64453 18.9098 4.29512 18.8223 3.94727L19.8301 3.36523L18.8301 1.63477L17.875 2.18555C17.4003 1.69515 16.7424 1.3842 16 1.20312V0H14ZM15 3C15.75 3 16.1852 3.24524 16.502 3.60156C16.8187 3.95788 17 4.47222 17 5C17 5.52778 16.8187 6.04212 16.502 6.39844C16.1852 6.75476 15.75 7 15 7C14.25 7 13.8148 6.75476 13.498 6.39844C13.1813 6.04212 13 5.52778 13 5C13 4.47222 13.1813 3.95788 13.498 3.60156C13.8148 3.24524 14.25 3 15 3ZM5 8V9.20117C3.88934 9.41337 2.90411 9.85226 2.25195 10.5859C2.23279 10.6075 2.22769 10.6364 2.20898 10.6582L1.30469 10.1348L0.304688 11.8652L1.26758 12.4219C1.11025 12.9365 1 13.4662 1 14C1 14.5338 1.11025 15.0635 1.26758 15.5781L0.304688 16.1348L1.30469 17.8652L2.20898 17.3418C2.22769 17.3636 2.23279 17.3925 2.25195 17.4141C2.90411 18.1477 3.88934 18.5866 5 18.7988V20H7V18.7988C8.11066 18.5866 9.09589 18.1477 9.74805 17.4141C9.76721 17.3925 9.77231 17.3636 9.79102 17.3418L10.6953 17.8652L11.6953 16.1348L10.7324 15.5781C10.8897 15.0635 11 14.5338 11 14C11 13.4662 10.8897 12.9365 10.7324 12.4219L11.6953 11.8652L10.6953 10.1348L9.79102 10.6582C9.77231 10.6364 9.76721 10.6075 9.74805 10.5859C9.09589 9.85225 8.11066 9.41337 7 9.20117V8H5ZM6 11C7.08333 11 7.76856 11.3702 8.25195 11.9141C8.73535 12.4579 9 13.2222 9 14C9 14.7778 8.73535 15.5421 8.25195 16.0859C7.76856 16.6298 7.08333 17 6 17C4.91667 17 4.23144 16.6298 3.74805 16.0859C3.26465 15.5421 3 14.7778 3 14C3 13.2222 3.26465 12.4579 3.74805 11.9141C4.23144 11.3702 4.91667 11 6 11ZM6 13C5.73478 13 5.48043 13.1054 5.29289 13.2929C5.10536 13.4804 5 13.7348 5 14C5 14.2652 5.10536 14.5196 5.29289 14.7071C5.48043 14.8946 5.73478 15 6 15C6.26522 15 6.51957 14.8946 6.70711 14.7071C6.89464 14.5196 7 14.2652 7 14C7 13.7348 6.89464 13.4804 6.70711 13.2929C6.51957 13.1054 6.26522 13 6 13Z" fill="#A8B0B9"/>
</svg>
