<svg width="18" height="18" viewBox="0 0 18 18" fill="none" xmlns="http://www.w3.org/2000/svg">
<path d="M3.75 0C1.69114 0 0 1.69114 0 3.75V14.25C0 16.3089 1.69114 18 3.75 18H14.25C16.3089 18 18 16.3089 18 14.25V3.75C18 1.69114 16.3089 0 14.25 0H3.75ZM3.75 2H14.25C15.2251 2 16 2.77486 16 3.75V14.25C16 15.2251 15.2251 16 14.25 16H3.75C2.77486 16 2 15.2251 2 14.25V3.75C2 2.77486 2.77486 2 3.75 2ZM5 3.61914C4.88775 3.61914 4.77492 3.6835 4.73242 3.8125C4.53742 4.4065 4.07152 4.87141 3.47852 5.06641C3.22052 5.15141 3.22052 5.51461 3.47852 5.59961C4.07152 5.79561 4.53742 6.26147 4.73242 6.85547C4.81742 7.11347 5.18258 7.11347 5.26758 6.85547C5.46258 6.26147 5.92848 5.79561 6.52148 5.59961C6.77948 5.51461 6.77948 5.15141 6.52148 5.06641C5.92848 4.87141 5.46258 4.4065 5.26758 3.8125C5.22508 3.6835 5.11225 3.61914 5 3.61914ZM11 4.40039C10.8667 4.40039 10.7336 4.47591 10.6836 4.62891L10.2148 6.05859C9.98284 6.76259 9.43056 7.31488 8.72656 7.54688L7.29688 8.01758C6.99088 8.11758 6.99088 8.55039 7.29688 8.65039L8.72656 9.11914C9.43056 9.35114 9.98284 9.90342 10.2148 10.6074L10.6855 12.0371C10.7865 12.3431 11.2184 12.3431 11.3184 12.0371L11.7871 10.6074C12.0181 9.90342 12.5714 9.35114 13.2754 9.11914L14.7051 8.65039C15.0111 8.55039 15.0111 8.11758 14.7051 8.01758L13.2754 7.54688C12.5714 7.31588 12.0191 6.76259 11.7871 6.05859L11.3164 4.62891C11.2664 4.47591 11.1333 4.40039 11 4.40039ZM6.33398 10.4004C6.20073 10.4004 6.06758 10.4759 6.01758 10.6289L5.95898 10.8047C5.72698 11.5087 5.1747 12.061 4.4707 12.293L4.29688 12.3496C3.99088 12.4496 3.99088 12.8824 4.29688 12.9824L4.4707 13.041C5.1747 13.273 5.72698 13.8253 5.95898 14.5293L6.01758 14.7031C6.11858 15.0091 6.55039 15.0091 6.65039 14.7031L6.70703 14.5293C6.93903 13.8253 7.49131 13.273 8.19531 13.041L8.37109 12.9824C8.67709 12.8824 8.67709 12.4496 8.37109 12.3496L8.19531 12.293C7.49131 12.061 6.93903 11.5087 6.70703 10.8047L6.65039 10.6289C6.60039 10.4759 6.46723 10.4004 6.33398 10.4004Z" fill="#A8B0B9"/>
</svg>
